# xmcd
# Copyright (C) 1995-1998 Ti Kan
#
# Track frame offsets:
#       150
#       18635
#       36912
#       50585
#       70662
#       87312
#       104362
#       128262
#       144535
#       162312
#       180859
#       198934
#       217890
#
# Disc length: 3103 seconds
#
# Revision: 2
# Processed by: cddbd v1.4PL0 Copyright (c) Steve Scherf et al.
# Submitted via: CD-Transfer v1.0
#
DISCID=a90c1d0d
DTITLE=Krüger Brothers - Access All Areas
DYEAR=1996
DGENRE=
TTITLE0=Free Born Man
TTITLE1=Long Haired Country Boy
TTITLE2=Access All Areas
TTITLE3=Golden Ring
TTITLE4=Don't Leave Me This Way
TTITLE5=(When I'm Dead) Sing No Sad Songs
TTITLE6=I Know, You Rider
TTITLE7=Down In The Coalmine
TTITLE8=Flight Obs 196
TTITLE9=San Antone
TTITLE10=Fire On The Mountain
TTITLE11=John Henry
TTITLE12=Three Fishers
EXTD=
EXTT0=
EXTT1=
EXTT2=
EXTT3=
EXTT4=
EXTT5=
EXTT6=
EXTT7=
EXTT8=
EXTT9=
EXTT10=
EXTT11=
EXTT12=
PLAYORDER=
